<?xml version="1.0" standalone="no"?>
<!DOCTYPE svg PUBLIC "-//W3C//DTD SVG 20010904//EN"
 "http://www.w3.org/TR/2001/REC-SVG-20010904/DTD/svg10.dtd">
<svg version="1.0" xmlns="http://www.w3.org/2000/svg"
 width="56.000000pt" height="77.000000pt" viewBox="0 0 56.000000 77.000000"
 preserveAspectRatio="xMidYMid meet">
<metadata>
Created by potrace 1.13, written by Peter Selinger 2001-2015
</metadata>
<g transform="translate(0.000000,77.000000) scale(0.100000,-0.100000)"
fill="#000000" stroke="none">
<path d="M140 750 c-70 -15 -89 -23 -112 -49 -40 -45 -38 -93 6 -137 19 -19
41 -34 50 -34 20 0 19 1 1 -43 -31 -74 -8 -134 61 -163 l33 -14 3 -153 3 -152
95 0 95 0 3 151 3 150 37 17 c66 29 88 96 57 171 -14 33 -14 36 2 36 10 0 28
8 39 18 52 41 58 106 16 153 -23 26 -42 34 -117 49 -110 23 -165 23 -275 0z
m219 -41 l50 -10 -2 -88 -2 -88 -39 31 c-55 45 -116 44 -175 -3 -30 -24 -40
-29 -33 -15 6 12 7 38 1 69 -14 90 -14 93 34 103 59 14 107 14 166 1z m-29
-534 l0 -125 -50 0 -50 0 0 125 0 125 50 0 50 0 0 -125z"/>
</g>
</svg>
